<svg t="1611307587865" class="icon" viewBox="0 0 1024 1024" version="1.1" xmlns="http://www.w3.org/2000/svg" p-id="3069" width="64" height="64"><path d="M319.146667 790.186667l5.12 1.706666-5.12 1.706667c-32.426667 8.533333-56.32 34.133333-64.853334 68.266667l-1.706666 5.12-1.706667-5.12c-8.533333-34.133333-32.426667-59.733333-64.853333-68.266667l-5.12-1.706667 5.12-1.706666c32.426667-8.533333 56.32-34.133333 64.853333-68.266667l1.706667-5.12 1.706666 5.12c8.533333 32.426667 34.133333 59.733333 64.853334 68.266667z" fill="#FFBE1B" p-id="3070"></path><path d="M418.133333 223.573333l6.826667 1.706667-6.826667 1.706667c-35.84 10.24-63.146667 39.253333-71.68 76.8l-1.706666 6.826666-1.706667-6.826666c-8.533333-37.546667-35.84-68.266667-71.68-76.8l-6.826667-1.706667 6.826667-1.706667c35.84-10.24 63.146667-39.253333 71.68-76.8l1.706667-6.826666 1.706666 6.826666c8.533333 37.546667 35.84 68.266667 71.68 76.8zM267.946667 349.866667l3.413333 1.706666-3.413333 1.706667c-23.893333 6.826667-42.666667 25.6-47.786667 51.2l-1.706667 5.12-1.706666-5.12c-5.12-25.6-23.893333-46.08-47.786667-51.2l-3.413333-1.706667 3.413333-1.706666c23.893333-6.826667 42.666667-25.6 47.786667-51.2l1.706666-5.12 1.706667 5.12c5.12 25.6 23.893333 44.373333 47.786667 51.2z" fill="#2371F5" p-id="3071"></path><path d="M853.333333 628.053333l3.413334 1.706667H853.333333c-23.893333 6.826667-44.373333 27.306667-49.493333 52.906667l-1.706667 5.12v-3.413334c-6.826667-25.6-25.6-46.08-49.493333-52.906666l-3.413333-1.706667 3.413333-1.706667c23.893333-6.826667 44.373333-27.306667 49.493333-52.906666l1.706667-5.12 1.706667 5.12c5.12 25.6 23.893333 46.08 47.786666 52.906666z" fill="#5D8EF9" p-id="3072"></path><path d="M363.52 390.826667h-27.306667c-15.36 0-27.306667 11.946667-27.306666 27.306666v310.613334c0 15.36 11.946667 27.306667 27.306666 27.306666h281.6c15.36 0 27.306667-11.946667 27.306667-27.306666v-27.306667H392.533333c-15.36 0-27.306667-11.946667-27.306666-27.306667V390.826667z m0 0" fill="#5D8EF9" p-id="3073"></path><path d="M703.146667 307.2H419.84c-15.36 0-27.306667 11.946667-27.306667 27.306667v310.613333c0 15.36 11.946667 27.306667 27.306667 27.306667h281.6c15.36 0 27.306667-11.946667 27.306667-27.306667V334.506667c1.706667-15.36-10.24-27.306667-25.6-27.306667z m-254.293334 97.28h225.28c8.533333 0 13.653333 6.826667 13.653334 13.653333 0 8.533333-6.826667 13.653333-13.653334 13.653334H448.853333c-8.533333 0-13.653333-6.826667-13.653333-13.653334-1.706667-6.826667 5.12-13.653333 13.653333-13.653333z m83.626667 197.973333h-85.333333c-8.533333 0-13.653333-6.826667-13.653334-13.653333s6.826667-13.653333 13.653334-13.653333h85.333333c8.533333 0 13.653333 6.826667 13.653333 13.653333 1.706667 6.826667-5.12 13.653333-13.653333 13.653333z m58.026667-83.626666h-141.653334c-8.533333 0-13.653333-6.826667-13.653333-13.653334 0-8.533333 6.826667-13.653333 13.653333-13.653333h141.653334c8.533333 0 13.653333 6.826667 13.653333 13.653333s-6.826667 13.653333-13.653333 13.653334z m69.973333 97.28c-23.893333 0-42.666667-18.773333-42.666667-42.666667s18.773333-42.666667 42.666667-42.666667 42.666667 18.773333 42.666667 42.666667-18.773333 42.666667-42.666667 42.666667z m0 0" fill="#2371F5" p-id="3074"></path></svg>